# Blender v2.81 (sub 16) OBJ File: 'apt.blend'
# www.blender.org
mtllib apt.mtl
o Cube
v 1.000000 2.000000 -2.000000
v 1.000000 0.000000 -2.000000
v 1.000000 2.000000 2.000966
v 1.000000 0.000000 2.000966
v -3.000000 2.000000 -2.000000
v -3.000000 0.000000 -2.000000
v -3.000000 2.000000 2.000000
v -3.000000 0.000000 2.000000
v 1.000000 0.000000 -3.000000
v -3.000000 0.000000 -3.000000
v 1.000000 2.000000 -3.000000
v -3.000000 2.000000 -3.000000
v 2.000000 2.000000 -2.000000
v 2.000000 0.000000 -2.000000
v 2.000000 2.000000 -3.000000
v 2.000000 0.000000 -3.000000
v -4.000000 2.000000 -2.000000
v -4.000000 0.000000 -2.000000
v -4.000000 2.000000 -3.000000
v -4.000000 0.000000 -3.000000
v -3.000000 0.000000 5.000000
v -3.000000 2.000000 5.000000
v 1.000000 2.000000 5.000000
v 1.000000 0.000000 5.000000
v -3.000000 0.000000 6.000000
v -3.000000 2.000000 6.000000
v 1.000000 2.000000 6.000000
v 1.000000 0.000000 6.000000
v 4.000000 2.000000 3.000000
v 4.000000 0.000000 3.000000
v 4.000000 2.000000 5.000000
v 4.000000 0.000000 5.000000
v 1.000000 2.000000 2.000000
v 1.000000 0.000000 2.000000
v 4.000000 2.000000 2.000000
v 4.000000 0.000000 2.000000
v 2.000000 1.865745 -2.106368
v 2.000000 0.134255 -2.106368
v 2.000000 1.865745 -2.893632
v 2.000000 0.134255 -2.893632
v -4.000000 1.865745 -2.106368
v -4.000000 0.134255 -2.106368
v -4.000000 1.865745 -2.893632
v -4.000000 0.134255 -2.893632
v -3.000000 0.000000 3.000000
v 2.000000 0.000000 5.000000
v 2.000000 2.000000 5.000000
v 2.000000 0.000000 2.000000
v 2.000000 2.000000 2.000000
v -3.000000 0.000000 -0.666667
v -3.000000 0.000000 0.666667
v 1.000000 2.000000 -0.666345
v 1.000000 2.000000 0.667311
v -3.000000 2.000000 0.666667
v -3.000000 2.000000 -0.666667
v 1.000000 0.000000 0.667310
v 1.000000 0.000000 -0.666345
v 2.479855 2.000000 -0.666345
v 2.479855 2.000000 0.667311
v 2.479855 0.000000 0.667310
v 2.479855 0.000000 -0.666345
v -3.000000 2.000000 3.000000
v 1.000000 0.000000 3.000483
v 1.000000 2.000000 3.000483
v 2.000000 0.000000 2.000966
v 2.000000 0.000000 3.000483
v 3.000000 0.666667 2.000966
v 3.000000 0.666667 3.000483
v 4.000000 0.666667 2.000966
v 4.000000 0.666667 3.000483
v 3.000000 1.333333 4.000483
v 4.000000 1.333333 4.000483
v 3.000000 1.333333 5.000483
v 4.000000 1.333333 5.000483
v 2.000000 2.000000 4.000483
v 2.000000 2.000000 5.000483
v 1.000000 2.000000 4.000483
v 1.000000 2.000000 5.000483
v 1.000000 0.000000 4.001221
v 1.000000 2.000000 4.001221
v 1.000000 0.000000 3.001221
v 1.000000 2.000000 3.001221
v 3.000000 0.000000 4.001221
v 3.000000 2.000000 4.001221
v 3.000000 0.000000 3.001221
v 3.000000 2.000000 3.001221
vt 0.625000 0.666667
vt 0.875000 0.666667
vt 0.875000 0.750000
vt 0.625000 0.750000
vt 0.625000 0.000000
vt 0.375000 0.000000
vt 0.375000 0.000000
vt 0.625000 0.000000
vt 0.375000 0.166667
vt 0.625000 0.166667
vt 0.625000 0.250000
vt 0.375000 0.250000
vt 0.125000 0.666667
vt 0.375000 0.666667
vt 0.375000 0.750000
vt 0.125000 0.750000
vt 0.625000 0.250000
vt 0.375000 0.250000
vt 0.375000 0.250000
vt 0.625000 0.250000
vt 0.625000 0.500000
vt 0.375000 0.500000
vt 0.375000 0.500000
vt 0.125000 0.500000
vt 0.125000 0.500000
vt 0.875000 0.500000
vt 0.625000 0.500000
vt 0.875000 0.500000
vt 0.625000 0.500000
vt 0.625000 0.500000
vt 0.375000 0.500000
vt 0.375000 0.500000
vt 0.625000 0.500000
vt 0.375000 0.500000
vt 0.125000 0.500000
vt 0.125000 0.500000
vt 0.125000 0.500000
vt 0.125000 0.500000
vt 0.875000 0.500000
vt 0.875000 0.500000
vt 0.375000 0.250000
vt 0.625000 0.250000
vt 0.625000 0.750000
vt 0.875000 0.750000
vt 0.875000 0.750000
vt 0.625000 0.750000
vt 0.125000 0.750000
vt 0.375000 0.750000
vt 0.375000 0.750000
vt 0.125000 0.750000
vt 0.625000 0.750000
vt 0.875000 0.750000
vt 0.375000 0.750000
vt 0.625000 1.000000
vt 0.375000 1.000000
vt 0.375000 0.000000
vt 0.625000 0.000000
vt 0.125000 0.750000
vt 0.375000 0.750000
vt 0.625000 0.750000
vt 0.625000 0.750000
vt 0.375000 0.750000
vt 0.375000 0.250000
vt 0.625000 0.250000
vt 0.625000 0.000000
vt 0.375000 0.000000
vt 0.625000 0.750000
vt 0.375000 0.750000
vt 0.375000 0.750000
vt 0.625000 0.750000
vt 0.625000 0.750000
vt 0.375000 0.750000
vt 0.375000 0.750000
vt 0.625000 0.750000
vt 0.625000 0.500000
vt 0.375000 0.500000
vt 0.875000 0.500000
vt 0.875000 0.500000
vt 0.625000 0.250000
vt 0.375000 0.250000
vt 0.625000 0.583333
vt 0.375000 0.583333
vt 0.375000 0.666667
vt 0.625000 0.666667
vt 0.125000 0.583333
vt 0.625000 0.083333
vt 0.375000 0.083333
vt 0.875000 0.583333
vt 0.375000 0.583333
vt 0.625000 0.583333
vt 0.375000 0.750000
vt 0.375000 0.750000
vt 0.375000 0.750000
vt 0.375000 0.750000
vt 0.375000 0.750000
vt 0.375000 0.750000
vt 0.375000 0.750000
vt 0.375000 0.750000
vt 0.375000 0.750000
vt 0.375000 0.750000
vt 0.375000 0.750000
vt 0.375000 0.750000
vt 0.375000 0.750000
vt 0.375000 0.750000
vt 0.375000 0.000000
vt 0.625000 0.000000
vt 0.625000 0.250000
vt 0.375000 0.250000
vt 0.625000 0.500000
vt 0.375000 0.500000
vt 0.625000 0.750000
vt 0.375000 0.750000
vt 0.625000 1.000000
vt 0.375000 1.000000
vt 0.125000 0.500000
vt 0.125000 0.750000
vt 0.875000 0.500000
vt 0.875000 0.750000
vn 0.0000 1.0000 0.0000
vn -1.0000 0.0000 0.0000
vn 0.0000 -1.0000 0.0000
vn 1.0000 0.0000 0.0000
vn 0.0000 0.0000 1.0000
vn 0.0000 0.0000 -1.0000
vn 0.5547 -0.8321 0.0000
vn 0.0000 -0.8321 0.5547
vn -0.5547 -0.8321 0.0000
usemtl Material
s off
f 53/1/1 54/2/1 7/3/1 3/4/1
f 62/5/2 45/6/2 21/7/2 22/8/2
f 50/9/2 55/10/2 5/11/2 6/12/2
f 51/13/3 56/14/3 4/15/3 8/16/3
f 56/14/4 53/1/4 3/4/4 4/15/4
f 6/12/5 5/11/5 17/17/5 18/18/5
f 10/19/6 12/20/6 11/21/6 9/22/6
f 2/23/3 6/24/3 10/25/3 9/22/3
f 5/26/1 1/27/1 11/21/1 12/28/1
f 11/21/1 1/27/1 13/29/1 15/30/1
f 13/29/4 14/31/4 38/32/4 37/33/4
f 1/27/5 2/23/5 14/31/5 13/29/5
f 9/22/6 11/21/6 15/30/6 16/34/6
f 2/23/3 9/22/3 16/34/3 14/31/3
f 20/35/2 18/36/2 42/37/2 44/38/2
f 5/26/1 12/28/1 19/39/1 17/40/1
f 12/20/6 10/19/6 20/41/6 19/42/6
f 10/25/3 6/24/3 18/36/3 20/35/3
f 23/43/1 22/44/1 26/45/1 27/46/1
f 45/47/3 63/48/3 24/49/3 21/50/3
f 64/51/1 62/52/1 22/44/1 23/43/1
f 28/53/5 27/46/5 26/54/5 25/55/5
f 22/8/2 21/7/2 25/56/2 26/57/2
f 21/50/3 24/49/3 28/53/3 25/58/3
f 24/49/4 23/43/4 27/46/4 28/53/4
f 30/59/4 29/60/4 31/61/4 32/62/4
f 19/42/2 20/41/2 44/63/2 43/64/2
f 7/65/2 8/66/2 45/6/2 62/5/2
f 47/67/5 46/68/5 32/62/5 31/61/5
f 48/69/6 49/70/6 35/71/6 36/72/6
f 29/60/4 30/59/4 36/72/4 35/71/4
f 23/43/5 24/49/5 46/68/5 47/67/5
f 34/73/6 33/74/6 49/70/6 48/69/6
f 15/30/4 13/29/4 37/33/4 39/75/4
f 16/34/4 15/30/4 39/75/4 40/76/4
f 17/40/2 19/39/2 43/77/2 41/78/2
f 18/18/2 17/17/2 41/79/2 42/80/2
f 14/31/4 16/34/4 40/76/4 38/32/4
f 8/16/3 4/15/3 63/48/3 45/47/3
f 3/4/1 7/3/1 62/52/1 64/51/1
f 2/23/4 1/27/4 52/81/4 57/82/4
f 53/1/5 56/14/5 60/83/5 59/84/5
f 6/24/3 2/23/3 57/82/3 50/85/3
f 50/85/3 57/82/3 56/14/3 51/13/3
f 8/66/2 7/65/2 54/86/2 51/87/2
f 51/87/2 54/86/2 55/10/2 50/9/2
f 1/27/1 5/26/1 55/88/1 52/81/1
f 52/81/1 55/88/1 54/2/1 53/1/1
f 61/89/4 58/90/4 59/84/4 60/83/4
f 56/14/3 57/82/3 61/89/3 60/83/3
f 52/81/1 53/1/1 59/84/1 58/90/1
f 57/82/6 52/81/6 58/90/6 61/89/6
f 63/48/3 4/15/3 65/91/3 66/92/3
f 66/92/7 65/91/7 67/93/7 68/94/7
f 68/94/3 67/93/3 69/95/3 70/96/3
f 68/94/8 70/96/8 72/97/8 71/98/8
f 71/98/3 72/97/3 74/99/3 73/100/3
f 71/98/9 73/100/9 76/101/9 75/102/9
f 75/102/3 76/101/3 78/103/3 77/104/3
f 79/105/2 80/106/2 82/107/2 81/108/2
f 81/108/6 82/107/6 86/109/6 85/110/6
f 85/110/4 86/109/4 84/111/4 83/112/4
f 83/112/5 84/111/5 80/113/5 79/114/5
f 81/115/3 85/110/3 83/112/3 79/116/3
f 86/109/1 82/117/1 80/118/1 84/111/1
