# Blender v2.81 (sub 16) OBJ File: 'buildings.blend'
# www.blender.org
mtllib well.mtl
o Cube.006_Cube.005
v -0.244705 7.486374 -2.941943
v -0.244705 7.486374 1.362669
v -0.007437 7.723642 -2.941943
v -0.007437 7.723642 1.362669
v -0.026986 7.268656 -2.941943
v -0.026986 7.268656 1.362669
v 0.210281 7.505923 -2.941943
v 0.210281 7.505923 1.362669
v -0.023904 4.443942 -0.170458
v -0.023904 5.767990 0.179840
v -0.609851 4.443942 -0.756404
v -0.960148 5.767990 -0.756404
v 0.562042 4.443942 -0.756404
v 0.912340 5.767990 -0.756404
v -0.023904 4.443942 -1.342350
v -0.023904 5.767990 -1.692648
v -0.023904 5.749509 -0.217434
v -0.562874 5.749509 -0.756404
v -0.023904 5.749509 -1.295374
v 0.515066 5.749509 -0.756404
v -0.023904 4.899406 -0.324131
v -0.456177 4.899406 -0.756404
v -0.023904 4.899406 -1.188677
v 0.408369 4.899406 -0.756404
v -0.326582 2.177680 -2.636935
v -0.326582 7.922976 -2.636935
v -0.326582 2.177680 -3.255676
v -0.326582 7.922976 -3.255676
v 0.292160 2.177680 -2.636935
v 0.292160 7.922976 -2.636935
v 0.292160 2.177680 -3.255676
v 0.292160 7.922976 -3.255676
v -0.326582 2.177680 1.552770
v -0.326582 7.922976 1.552769
v -0.326582 2.177680 0.934028
v -0.326582 7.922976 0.934028
v 0.292159 2.177681 1.552770
v 0.292159 7.922976 1.552769
v 0.292159 2.177681 0.934028
v 0.292159 7.922976 0.934028
v -0.114084 7.439079 -0.756581
v -0.114085 5.606053 -0.756581
v -0.013049 7.439079 -0.655545
v -0.013049 5.606053 -0.655546
v -0.021374 7.439079 -0.849291
v -0.021374 5.606053 -0.849292
v 0.079662 7.439079 -0.748256
v 0.079661 5.606053 -0.748256
v 0.026758 -0.076203 -3.468427
v 0.026758 2.487074 -3.468427
v 1.839269 -0.076203 -2.717660
v 1.839269 2.487074 -2.717660
v 2.590036 -0.076203 -0.905149
v 2.590036 2.487074 -0.905149
v 1.839269 -0.076203 0.907362
v 1.839269 2.487074 0.907361
v 0.026758 -0.076203 1.658128
v 0.026758 2.487074 1.658128
v -1.785753 -0.076203 0.907361
v -1.785753 2.487074 0.907361
v -2.536519 -0.076203 -0.905149
v -2.536519 2.487074 -0.905149
v -1.785753 -0.076203 -2.717660
v -1.785753 2.487074 -2.717660
v 1.371973 2.487074 -2.250364
v 0.026758 2.487074 -2.807570
v 1.929180 2.487074 -0.905149
v 1.371973 2.487074 0.440066
v 0.026758 2.487074 0.997271
v -1.318457 2.487074 0.440065
v -1.875663 2.487074 -0.905149
v -1.318457 2.487074 -2.250364
v 1.371973 0.912768 -2.250364
v 0.026758 0.912768 -2.807570
v 1.929179 0.912768 -0.905149
v 1.371973 0.912768 0.440065
v 0.026758 0.912768 0.997271
v -1.318456 0.912768 0.440065
v -1.875663 0.912768 -0.905149
v -1.318456 0.912768 -2.250364
vt 0.859115 0.206474
vt 0.859115 0.000000
vt 0.877431 0.000000
vt 0.877431 0.206474
vt 0.430261 0.706725
vt 0.430260 0.913200
vt 0.410301 0.913200
vt 0.410301 0.706725
vt 0.391985 0.913200
vt 0.391985 0.706725
vt 0.643435 0.711336
vt 0.643435 0.917811
vt 0.623475 0.917811
vt 0.623475 0.711336
vt 0.307271 0.879940
vt 0.334360 0.879939
vt 0.334360 0.909616
vt 0.307271 0.909618
vt 0.280182 0.909618
vt 0.280182 0.879940
vt 0.307271 0.879939
vt 0.307271 0.909616
vt 0.391719 0.803833
vt 0.280182 0.793324
vt 0.280606 0.706725
vt 0.391985 0.749635
vt 0.550696 0.841640
vt 0.439317 0.884549
vt 0.438893 0.797951
vt 0.550430 0.787443
vt 0.439317 0.711336
vt 0.550696 0.733235
vt 0.391985 0.858040
vt 0.280606 0.879939
vt 0.859115 0.096237
vt 0.813566 0.061056
vt 0.813566 0.000000
vt 0.859115 0.035181
vt 0.623475 0.711336
vt 0.623475 0.808893
vt 0.608095 0.799992
vt 0.608095 0.743831
vt 0.622402 0.865106
vt 0.622158 0.914968
vt 0.550696 0.921712
vt 0.550892 0.881721
vt 0.550696 0.865106
vt 0.550696 0.767549
vt 0.566199 0.776191
vt 0.566199 0.832352
vt 0.117792 0.833725
vt 0.151395 0.807771
vt 0.151395 0.852814
vt 0.117792 0.878768
vt 0.622402 0.964821
vt 0.550892 0.961696
vt 0.859000 0.829269
vt 0.859245 0.879131
vt 0.787734 0.862516
vt 0.787538 0.822525
vt 0.859245 0.779417
vt 0.787734 0.782542
vt 0.891641 0.774536
vt 0.891641 0.243071
vt 0.918731 0.243071
vt 0.918731 0.774536
vt 0.214920 0.468564
vt 0.214920 1.000000
vt 0.162869 0.995090
vt 0.162869 0.463654
vt 0.945820 0.243071
vt 0.945821 0.774535
vt 0.918731 0.774535
vt 0.918731 0.243071
vt 0.891641 0.243071
vt 0.891641 0.774507
vt 0.839590 0.779417
vt 0.839590 0.247981
vt 0.840656 0.153473
vt 0.840656 0.210709
vt 0.813566 0.210709
vt 0.813566 0.153473
vt 0.840656 0.096237
vt 0.840656 0.153473
vt 0.813566 0.153473
vt 0.813566 0.096237
vt 0.972910 0.243071
vt 0.972910 0.774536
vt 0.945821 0.774536
vt 0.945821 0.243071
vt 0.280182 0.468564
vt 0.280182 1.000000
vt 0.228131 0.995090
vt 0.228131 0.463654
vt 0.972910 0.774535
vt 0.972910 0.243071
vt 1.000000 0.243071
vt 1.000000 0.774535
vt 0.787538 0.779417
vt 0.787538 0.247981
vt 0.839590 0.243071
vt 0.839590 0.774507
vt 0.117792 0.936004
vt 0.117792 0.878768
vt 0.144882 0.878768
vt 0.144882 0.936004
vt 0.814628 0.879131
vt 0.814628 0.936367
vt 0.787538 0.936367
vt 0.787538 0.879131
vt 0.891842 0.779417
vt 0.891842 0.948970
vt 0.883340 0.949722
vt 0.883340 0.780168
vt 0.875543 0.950504
vt 0.875543 0.780950
vt 0.875543 0.780958
vt 0.867047 0.949660
vt 0.867047 0.780107
vt 0.859245 0.948970
vt 0.859245 0.779417
vt 0.220924 0.485315
vt 0.228131 0.479749
vt 0.228131 0.490277
vt 0.220924 0.495843
vt 0.220924 0.463654
vt 0.228131 0.469221
vt 0.228131 0.479749
vt 0.220924 0.474182
vt 0.654515 0.523340
vt 0.438893 0.543678
vt 0.439233 0.376006
vt 0.654855 0.355668
vt 0.813566 0.005957
vt 0.813566 0.243071
vt 0.734211 0.237114
vt 0.734211 0.000000
vt 0.654855 0.243071
vt 0.654855 0.005957
vt 0.654855 0.355668
vt 0.439233 0.335330
vt 0.438893 0.167659
vt 0.654515 0.187997
vt 0.439233 0.000000
vt 0.654855 0.020338
vt 0.280182 0.706725
vt 0.280182 0.469611
vt 0.359537 0.463654
vt 0.359537 0.700768
vt 0.438893 0.086157
vt 0.438893 0.257646
vt 0.410604 0.250989
vt 0.410604 0.123713
vt 0.438893 0.469611
vt 0.438893 0.706725
vt 0.654855 0.690998
vt 0.439233 0.711336
vt 0.000000 0.206009
vt 0.064274 0.049644
vt 0.155172 0.000000
vt 0.219446 0.086157
vt 0.219446 0.257646
vt 0.155172 0.414010
vt 0.064274 0.463654
vt 0.000000 0.377497
vt 0.713752 0.911436
vt 0.654855 0.915857
vt 0.654855 0.770227
vt 0.713752 0.765806
vt 0.219446 0.206009
vt 0.283721 0.049644
vt 0.295438 0.096614
vt 0.247735 0.212665
vt 0.219446 0.377497
vt 0.247735 0.339941
vt 0.374618 0.414010
vt 0.283721 0.463654
vt 0.295438 0.403885
vt 0.362901 0.367040
vt 0.374618 0.000000
vt 0.362901 0.059769
vt 0.047703 0.770926
vt 0.000000 0.654874
vt 0.000000 0.527599
vt 0.047703 0.463654
vt 0.115166 0.500499
vt 0.162869 0.616550
vt 0.162869 0.743826
vt 0.115166 0.807771
vt 0.000000 0.812192
vt 0.058896 0.807771
vt 0.058896 0.953401
vt 0.000000 0.957822
vt 0.787538 0.504439
vt 0.787286 0.628882
vt 0.654855 0.641373
vt 0.655108 0.516930
vt 0.772648 0.915857
vt 0.772648 0.770227
vt 0.787538 0.255562
vt 0.787286 0.379996
vt 0.654855 0.367504
vt 0.655108 0.243071
vt 0.787538 0.504439
vt 0.655108 0.491947
vt 0.117792 0.812192
vt 0.117792 0.957822
vt 0.787538 0.753315
vt 0.655108 0.765806
vn -0.7071 0.7071 -0.0000
vn 0.7071 0.7071 0.0000
vn 0.7071 -0.7071 -0.0000
vn -0.7071 -0.7071 -0.0000
vn 0.0000 0.0000 -1.0000
vn -0.0000 0.0000 1.0000
vn -0.6950 -0.1839 0.6950
vn -0.6950 -0.1839 -0.6950
vn 0.6950 -0.1839 -0.6950
vn 0.6950 -0.1839 0.6950
vn 0.0000 -1.0000 0.0000
vn -0.0464 0.9978 0.0464
vn 0.7043 0.0884 -0.7043
vn 0.0464 0.9978 -0.0464
vn -0.0464 0.9978 -0.0464
vn 0.0464 0.9978 0.0464
vn 0.0000 1.0000 0.0000
vn -0.7043 0.0884 -0.7043
vn 0.7043 0.0884 0.7043
vn -0.7043 0.0884 0.7043
vn -1.0000 -0.0000 0.0000
vn 1.0000 -0.0000 0.0000
vn -0.7071 -0.0000 0.7071
vn 0.7071 -0.0000 0.7071
vn 0.7071 0.0000 -0.7071
vn -0.7071 0.0000 -0.7071
vn 0.3827 0.0000 -0.9239
vn 0.9239 -0.0000 -0.3827
vn 0.9239 0.0000 0.3827
vn 0.3827 0.0000 0.9239
vn -0.3827 -0.0000 0.9239
vn -0.9239 -0.0000 0.3827
vn -0.9239 -0.0000 -0.3827
vn -0.3827 0.0000 -0.9239
usemtl Material.005
s off
f 1/1/1 2/2/1 4/3/1 3/4/1
f 3/5/2 4/6/2 8/7/2 7/8/2
f 7/8/3 8/7/3 6/9/3 5/10/3
f 5/11/4 6/12/4 2/13/4 1/14/4
f 3/15/5 7/16/5 5/17/5 1/18/5
f 8/19/6 4/20/6 2/21/6 6/22/6
f 9/23/7 10/24/7 12/25/7 11/26/7
f 11/27/8 12/28/8 16/29/8 15/30/8
f 15/30/9 16/29/9 14/31/9 13/32/9
f 13/33/10 14/34/10 10/24/10 9/23/10
f 11/35/11 15/36/11 13/37/11 9/38/11
f 14/39/12 16/40/12 19/41/12 20/42/12
f 18/43/13 17/44/13 21/45/13 22/46/13
f 12/47/14 10/48/14 17/49/14 18/50/14
f 10/48/15 14/39/15 20/42/15 17/49/15
f 16/40/16 12/47/16 18/50/16 19/41/16
f 23/51/17 22/52/17 21/53/17 24/54/17
f 17/44/18 20/55/18 24/56/18 21/45/18
f 19/57/19 18/58/19 22/59/19 23/60/19
f 20/61/20 19/57/20 23/60/20 24/62/20
f 25/63/21 26/64/21 28/65/21 27/66/21
f 27/67/5 28/68/5 32/69/5 31/70/5
f 31/71/22 32/72/22 30/73/22 29/74/22
f 29/75/6 30/76/6 26/77/6 25/78/6
f 27/79/11 31/80/11 29/81/11 25/82/11
f 32/83/17 28/84/17 26/85/17 30/86/17
f 33/87/21 34/88/21 36/89/21 35/90/21
f 35/91/5 36/92/5 40/93/5 39/94/5
f 39/95/22 40/96/22 38/97/22 37/98/22
f 37/99/6 38/100/6 34/101/6 33/102/6
f 35/103/11 39/104/11 37/105/11 33/106/11
f 40/107/17 36/108/17 34/109/17 38/110/17
f 41/111/23 42/112/23 44/113/23 43/114/23
f 43/114/24 44/113/24 48/115/24 47/116/24
f 47/117/25 48/115/25 46/118/25 45/119/25
f 45/119/26 46/118/26 42/120/26 41/121/26
f 43/122/17 47/123/17 45/124/17 41/125/17
f 48/126/11 44/127/11 42/128/11 46/129/11
f 49/130/27 50/131/27 52/132/27 51/133/27
f 51/134/28 52/135/28 54/136/28 53/137/28
f 53/137/29 54/136/29 56/138/29 55/139/29
f 55/140/30 56/141/30 58/142/30 57/143/30
f 57/143/31 58/142/31 60/144/31 59/145/31
f 59/146/32 60/147/32 62/148/32 61/149/32
f 60/150/17 58/151/17 69/152/17 70/153/17
f 61/149/33 62/148/33 64/154/33 63/155/33
f 63/156/34 64/157/34 50/131/34 49/130/34
f 49/158/11 51/159/11 53/160/11 55/161/11 57/162/11 59/163/11 61/164/11 63/165/11
f 67/166/32 65/167/32 73/168/32 75/169/32
f 50/170/17 64/171/17 72/172/17 66/173/17
f 52/174/17 50/170/17 66/173/17 65/175/17
f 56/176/17 54/177/17 67/178/17 68/179/17
f 62/180/17 60/150/17 70/153/17 71/181/17
f 58/151/17 56/176/17 68/179/17 69/152/17
f 64/171/17 62/180/17 71/181/17 72/172/17
f 54/177/17 52/174/17 65/175/17 67/178/17
f 73/182/17 74/183/17 80/184/17 79/185/17 78/186/17 77/187/17 76/188/17 75/189/17
f 72/190/29 71/191/29 79/192/29 80/193/29
f 70/194/27 69/195/27 77/196/27 78/197/27
f 68/198/33 67/166/33 75/169/33 76/199/33
f 65/200/31 66/201/31 74/202/31 73/203/31
f 66/201/30 72/204/30 80/205/30 74/202/30
f 71/191/28 70/206/28 78/207/28 79/192/28
f 69/195/34 68/208/34 76/209/34 77/196/34
